# xmcd
#
# Track frame offsets:
#  150
#  17394
#  35161
#  53498
#  67291
#  78036
#  94547
#  110271
#  126148
#  146913
#  169504
#  186682
#  198103
#  214997
#  227087
#  245077
#  265294
#  279864
#
# Disc length: 3939 seconds
#
# Revision: 0
# Processed by: cddbd v1.5.1PL2 Copyright (c) Steve Scherf et al.
# Submitted via: Collectorz.com_Music_Collector 6.10
#
DISCID=010f6112
DTITLE=VARIOUS AUSTRALIAN ARTISTS - Toyota Muster Rural Aid Appeal Volumes 29,30,31,32 [CD3)
DYEAR=2005
DGENRE=AUSSIE ALTERNATIVE - AUSSIE BLUEGRASS - AUSSIE BLUES - AUSSIE BLUES ROCK - AUSSIE COUNTRY - AUSSIE FOLK-ROCK - AUSSIE INDEPENDENT ROCK - AUSSIE_Country Blues - AUSSIE_General Country - Country
TTITLE0=Melinda Schneider - Real People
TTITLE1=ADAM BRAND - Get LOud
TTITLE2=MIke Carr - She's Gone
TTITLE3=The Sunny Cowgirls - Rousy's LIfe
TTITLE4=Kake Nikolai - Sidewinder
TTITLE5=Sweeney Killeen - Running 
TTITLE6=Samantha McClymont - Cookin' In My Kitchen
TTITLE7=The Vibe - Walkaway
TTITLE8=Michael Bryers - Cigarette Breath
TTITLE9=Kelly Black and Rob Black - 600 MIles
TTITLE10=Bobby Cash - Man Out On The Road
TTITLE11=Smokin Crawdads - Kurri mKurri
TTITLE12=Rebecca Lee Nye - Gotta Say Goodbye
TTITLE13=Brian Young - Tjilpi
TTITLE14=John Stephan - Feeling You
TTITLE15=Cat Southern - Big Girl Now
TTITLE16=Brock Colley - Gotta Take A Minute
TTITLE17=The Purple Drippers - Next Boat Out
EXTD=
EXTT0=
EXTT1=
EXTT2=
EXTT3=
EXTT4=
EXTT5=
EXTT6=
EXTT7=
EXTT8=
EXTT9=
EXTT10=
EXTT11=
EXTT12=
EXTT13=
EXTT14=
EXTT15=
EXTT16=
EXTT17=
PLAYORDER=
